<svg width="5" height="10" viewBox="0 0 5 10" fill="none" xmlns="http://www.w3.org/2000/svg">
<g clip-path="url(#clip0_57_4776)">
<path d="M5 5.47762C5 5.60325 4.92672 5.74144 4.78224 5.88592C4.78224 5.88592 1.90536 8.7628 0.845896 9.82017C0.713987 9.95417 0.546482 10.017 0.389447 9.99605C0.249162 9.97721 0.134003 9.89345 0.0607203 9.76364C0.020938 9.69245 0 9.61707 0 9.5396C0 9.40769 0.0565327 9.28206 0.16541 9.17318C0.546482 8.79002 0.929648 8.40895 1.31281 8.02578L3.60972 5.73307C3.63275 5.71004 3.65578 5.68491 3.68509 5.6535L3.88819 5.43575L3.71859 5.29337L3.6474 5.23684C3.61181 5.20752 3.57831 5.1824 3.549 5.15308C2.54397 4.15015 1.53894 3.14513 0.536013 2.1401L0.196817 1.80091C0.0921273 1.69622 0.041876 1.58943 0.041876 1.47009C0.041876 1.42402 0.0502513 1.37586 0.0628141 1.32561C0.115159 1.14555 0.226131 1.04086 0.412479 0.998981C0.579983 0.961292 0.720268 1.00736 0.854271 1.14136L4.78015 5.06724C4.92672 5.2138 5 5.352 5 5.47762Z" fill="#F555A2"/>
</g>
<defs>
<clipPath id="clip0_57_4776">
<rect width="9.01173" height="5" fill="white" transform="matrix(0 -1 1 0 0 10)"/>
</clipPath>
</defs>
</svg>
